# xmcd
#
# Track frame offsets:
#	150
#	16066
#	30393
#	47048
#	64264
#	79250
#	95555
#	111868
#	130158
#	145935
#	162680
#	177212
#	192447
#	208397
#
# Disc length: 3001 seconds
# Revision: 0
# Processed by: cddbd v1.5.2PL0 Copyright (c) Steve Scherf et al.
# Submitted via: dBpowerAMP V12.0
#
DISCID=c90bb70e
DTITLE=Michael McDonald - Motown Two
DYEAR=2004
DGENRE=Soul
TTITLE0=You're All I Need To Get By
TTITLE1=I Was Made To Love Her
TTITLE2=Reach Out I'll Be There
TTITLE3=Stop, Look, Listen (To Your Heart)
TTITLE4=Baby I Need Your Loving
TTITLE5=Loving You Is Sweeter Than Ever
TTITLE6=The Tracks Of My Tears
TTITLE7=What's Going On
TTITLE8=I Second That Emotion
TTITLE9=After The Dance
TTITLE10=Nowhere To Run
TTITLE11=Tuesday Heartbreak
TTITLE12=Mercy Mercy Me (The Ecology)
TTITLE13=Baby, I'm For Real
EXTD=
EXTT0=
EXTT1=
EXTT2=
EXTT3=
EXTT4=
EXTT5=
EXTT6=
EXTT7=
EXTT8=
EXTT9=
EXTT10=
EXTT11=
EXTT12=
EXTT13=
PLAYORDER=
